<?xml version="1.0" encoding="UTF-8"?>
<svg width="118px" height="38px" viewBox="0 0 118 38" version="1.1" xmlns="http://www.w3.org/2000/svg" xmlns:xlink="http://www.w3.org/1999/xlink">
    <title>Discord</title>
    <defs>
        <path d="M7.57182,38.25 C7.26714,38.25 6.96982,38.2461 6.66753,38.2393 C6.04131177,38.2311407 5.41655717,38.176625 4.79839,38.0762 C4.2219803,37.9769282 3.66359424,37.7922645 3.14165,37.5283 C2.6244917,37.2665227 2.15280177,36.9232729 1.74465,36.5117 C1.33059033,36.1049753 0.985866734,35.633244 0.72414,35.1152 C0.45952926,34.5937891 0.276402881,34.0348996 0.18114,33.458 C0.0782643583,32.8381149 0.0226043736,32.2113132 0.01464,31.583 C0.0083,31.3721 0,30.6699 0,30.6699 L0,7.56934 C0,7.56934 0.00884,6.87793 0.01469,6.6748 C0.0223158267,6.04748205 0.0776521477,5.4216531 0.18022,4.80273 C0.275658723,4.22425008 0.458926872,3.66374887 0.72368,3.14063 C0.984444824,2.62294385 1.32725458,2.15086029 1.73882,1.74268 C2.14992283,1.33062142 2.62312161,0.985604119 3.14116,0.72021 C3.66190467,0.457093603 4.21923545,0.273732545 4.79448,0.17627 C5.41467733,0.0748361385 6.04160084,0.0199960843 6.66999,0.01221 L7.57231,0 L110.34086,0 L111.25396,0.0127 C111.876633,0.0200991977 112.497862,0.0744500059 113.11236,0.17529 C113.693428,0.273975068 114.256567,0.458615534 114.78326,0.72314 C115.821078,1.25798605 116.665532,2.10416295 117.19826,3.14307 C117.458787,3.66257756 117.639229,4.21850676 117.73346,4.79199 C117.837249,5.41599138 117.895337,6.04673834 117.90726,6.6792 C117.91016,6.9624 117.91016,7.2666 117.91016,7.56934 C117.91806,7.94434 117.91806,8.30127 117.91806,8.66113 L117.91806,29.5898 C117.91806,29.9531 117.91806,30.3076 117.91016,30.665 C117.91016,30.9902 117.91016,31.2881 117.90626,31.5947 C117.894595,32.2158757 117.837476,32.8353642 117.73536,33.4482 C117.64205,34.0292612 117.45992,34.5925131 117.19536,35.1182 C116.931783,35.6306211 116.589039,36.0982662 116.17976,36.5039 C115.771241,36.9176846 115.298719,37.2629427 114.78036,37.5264 C114.255126,37.7923937 113.692816,37.9777403 113.11236,38.0762 C112.49424,38.177161 111.869425,38.2316802 111.24316,38.2393 C110.95026,38.2461 110.64356,38.25 110.34576,38.25 L109.26176,38.252 L7.57182,38.25 Z" id="path-1"></path>
    </defs>
    <g id="Discord" stroke="none" stroke-width="1" fill="none" fill-rule="evenodd">
        <g id="Rectangle" transform="translate(0.000000, 0.000000)">
            <mask id="mask-2" fill="white">
                <use xlink:href="#path-1"></use>
            </mask>
            <use id="Mask" fill="#2F2F2F" fill-rule="nonzero" xlink:href="#path-1"></use>
            <rect fill="#5865F2" mask="url(#mask-2)" x="88" y="-7" width="41" height="21" rx="7"></rect>
        </g>
        <text id="Join-the" font-family="SFProDisplay-Medium, SF Pro Display" font-size="9" font-weight="400" fill="#FFFFFF">
            <tspan x="38" y="14">Join the</tspan>
        </text>
        <text font-family="SFProDisplay-Medium, SF Pro Display" font-size="18" font-weight="400" fill="#FFFFFF">
            <tspan x="37" y="30">Discord</tspan>
        </text>
        <g id="Discord-Logo-White-(2)" transform="translate(9.000000, 11.000000)" fill="#FFFFFF" fill-rule="nonzero">
            <path d="M18.6239291,1.40920724 C17.2217235,0.756946488 15.71807,0.276389514 14.1459067,0.00115457486 C14.1172757,-0.00415737339 14.0886757,0.00911747115 14.0739264,0.0356677885 C13.8805433,0.384356197 13.6663377,0.839248703 13.5163349,1.19679214 C11.8253715,0.940147448 10.1430842,0.940147448 8.48679413,1.19679214 C8.33676033,0.831301199 8.11477724,0.384356197 7.92052654,0.0356677885 C7.90577724,0.0100033194 7.87717724,-0.00327152513 7.84854626,0.00115457486 C6.27725052,0.275509948 4.77359703,0.756066923 3.37052383,1.40920724 C3.35837735,1.41451605 3.34796608,1.42337453 3.34105622,1.43487171 C0.488942208,5.75460709 -0.292371041,9.96816632 0.0909151187,14.1294856 C0.0926494003,14.1498413 0.103922386,14.1693174 0.119531541,14.1816941 C2.00127485,15.5826537 3.82406466,16.4331623 5.61300547,16.9969011 C5.64163645,17.0057596 5.67197166,16.9951419 5.69019138,16.9712366 C6.11336602,16.3853831 6.49058854,15.7676453 6.81401952,15.1180232 C6.83310684,15.079982 6.81488713,15.0348414 6.77587586,15.0197946 C6.17753785,14.7896939 5.60779983,14.5091439 5.05975196,14.1905526 C5.01640266,14.1648882 5.01293224,14.1020306 5.05281111,14.0719369 C5.16814069,13.9843259 5.28350125,13.8931652 5.39362519,13.8011249 C5.41354913,13.784319 5.44131251,13.7807693 5.46473786,13.7913869 C9.06517721,15.4578811 12.9630813,15.4578811 16.521039,13.7913869 C16.5444644,13.7798897 16.5722277,13.7834394 16.5930193,13.8002454 C16.7031742,13.8922856 16.8185038,13.9843259 16.934701,14.0719369 C16.9745798,14.1020306 16.971977,14.1648882 16.9286277,14.1905526 C16.3805799,14.5153322 15.8108418,14.7896939 15.2116362,15.018915 C15.172625,15.0339618 15.1552728,15.079982 15.1743602,15.1180232 C15.504732,15.7667343 15.8819545,16.3844721 16.2973207,16.970357 C16.3146728,16.9951419 16.3458756,17.0057596 16.3745066,16.9969011 C18.1721235,16.4331623 19.9949009,15.5826537 21.8766445,14.1816941 C21.893129,14.1693174 21.9035403,14.1507209 21.9052755,14.1303652 C22.363991,9.31942383 21.1369488,5.14041896 18.6525291,1.43575128 C18.6464559,1.42337453 18.6360756,1.41451605 18.6239291,1.40920724 Z M7.35168711,11.5956769 C6.26770686,11.5956769 5.37453787,10.5867837 5.37453787,9.34775841 C5.37453787,8.10873313 6.25038573,7.09983992 7.35168711,7.09983992 C8.46163357,7.09983992 9.34615749,8.11759161 9.32880538,9.34775841 C9.32880538,10.5867837 8.45295751,11.5956769 7.35168711,11.5956769 Z M14.6618531,11.5956769 C13.5779039,11.5956769 12.6847349,10.5867837 12.6847349,9.34775841 C12.6847349,8.10873313 13.5605518,7.09983992 14.6618531,7.09983992 C15.7718306,7.09983992 16.6563235,8.11759161 16.6390024,9.34775841 C16.6390024,10.5867837 15.7718306,11.5956769 14.6618531,11.5956769 Z" id="Shape"></path>
        </g>
        <text id="New" font-family="SFProDisplay-Medium, SF Pro Display" font-size="9" font-weight="400" fill="#FFFFFF">
            <tspan x="95" y="10">New</tspan>
        </text>
    </g>
</svg>