<svg xmlns="http://www.w3.org/2000/svg" xmlns:xlink="http://www.w3.org/1999/xlink" width="118" height="38" version="1.1" viewBox="0 0 118 38"><title>Discord</title><defs><path id="path-1" d="M7.57182,38.25 C7.26714,38.25 6.96982,38.2461 6.66753,38.2393 C6.04131177,38.2311407 5.41655717,38.176625 4.79839,38.0762 C4.2219803,37.9769282 3.66359424,37.7922645 3.14165,37.5283 C2.6244917,37.2665227 2.15280177,36.9232729 1.74465,36.5117 C1.33059033,36.1049753 0.985866734,35.633244 0.72414,35.1152 C0.45952926,34.5937891 0.276402881,34.0348996 0.18114,33.458 C0.0782643583,32.8381149 0.0226043736,32.2113132 0.01464,31.583 C0.0083,31.3721 0,30.6699 0,30.6699 L0,7.56934 C0,7.56934 0.00884,6.87793 0.01469,6.6748 C0.0223158267,6.04748205 0.0776521477,5.4216531 0.18022,4.80273 C0.275658723,4.22425008 0.458926872,3.66374887 0.72368,3.14063 C0.984444824,2.62294385 1.32725458,2.15086029 1.73882,1.74268 C2.14992283,1.33062142 2.62312161,0.985604119 3.14116,0.72021 C3.66190467,0.457093603 4.21923545,0.273732545 4.79448,0.17627 C5.41467733,0.0748361385 6.04160084,0.0199960843 6.66999,0.01221 L7.57231,0 L110.34086,0 L111.25396,0.0127 C111.876633,0.0200991977 112.497862,0.0744500059 113.11236,0.17529 C113.693428,0.273975068 114.256567,0.458615534 114.78326,0.72314 C115.821078,1.25798605 116.665532,2.10416295 117.19826,3.14307 C117.458787,3.66257756 117.639229,4.21850676 117.73346,4.79199 C117.837249,5.41599138 117.895337,6.04673834 117.90726,6.6792 C117.91016,6.9624 117.91016,7.2666 117.91016,7.56934 C117.91806,7.94434 117.91806,8.30127 117.91806,8.66113 L117.91806,29.5898 C117.91806,29.9531 117.91806,30.3076 117.91016,30.665 C117.91016,30.9902 117.91016,31.2881 117.90626,31.5947 C117.894595,32.2158757 117.837476,32.8353642 117.73536,33.4482 C117.64205,34.0292612 117.45992,34.5925131 117.19536,35.1182 C116.931783,35.6306211 116.589039,36.0982662 116.17976,36.5039 C115.771241,36.9176846 115.298719,37.2629427 114.78036,37.5264 C114.255126,37.7923937 113.692816,37.9777403 113.11236,38.0762 C112.49424,38.177161 111.869425,38.2316802 111.24316,38.2393 C110.95026,38.2461 110.64356,38.25 110.34576,38.25 L109.26176,38.252 L7.57182,38.25 Z"/></defs><g id="Discord" fill="none" fill-rule="evenodd" stroke="none" stroke-width="1"><g id="Rectangle" transform="translate(0.000000, 0.000000)"><mask id="mask-2" fill="#fff"><use xlink:href="#path-1"/></mask><use id="Mask" fill="#2F2F2F" fill-rule="nonzero" xlink:href="#path-1"/><rect width="41" height="21" x="88" y="-7" fill="#5865F2" mask="url(#mask-2)" rx="7"/></g><path id="Jointhe" fill="#FFF" fill-rule="nonzero" d="M40.0830078,14.1054688 C41.3266602,14.1054688 42.0605469,13.371582 42.0605469,12.1235352 L42.0605469,7.65869141 L41.0761719,7.65869141 L41.0761719,12.1147461 C41.0761719,12.8398438 40.7246094,13.2265625 40.0742188,13.2265625 C39.4853516,13.2265625 39.1821289,12.8486328 39.1425781,12.3652344 L39.1381836,12.3256836 L38.1669922,12.3256836 L38.1713867,12.378418 C38.2241211,13.3891602 38.909668,14.1054688 40.0830078,14.1054688 Z M45.1147461,14.0922852 C46.4375,14.0922852 47.3076172,13.1782227 47.3076172,11.6884766 L47.3076172,11.6796875 C47.3076172,10.1987305 46.4287109,9.2890625 45.1103516,9.2890625 C43.7963867,9.2890625 42.921875,10.203125 42.921875,11.6796875 L42.921875,11.6884766 C42.921875,13.1738281 43.7875977,14.0922852 45.1147461,14.0922852 Z M45.1191406,13.296875 C44.3764648,13.296875 43.8930664,12.7124023 43.8930664,11.6884766 L43.8930664,11.6796875 C43.8930664,10.6689453 44.3808594,10.0844727 45.1103516,10.0844727 C45.8530273,10.0844727 46.3364258,10.6689453 46.3364258,11.6796875 L46.3364258,11.6884766 C46.3364258,12.7080078 45.8618164,13.296875 45.1191406,13.296875 Z M48.5556641,8.66503906 C48.8676758,8.66503906 49.109375,8.41894531 49.109375,8.12011719 C49.109375,7.81689453 48.8676758,7.57080078 48.5556641,7.57080078 C48.2480469,7.57080078 48.0019531,7.81689453 48.0019531,8.12011719 C48.0019531,8.41894531 48.2480469,8.66503906 48.5556641,8.66503906 Z M49.0302734,14 L49.0302734,9.37695312 L48.0810547,9.37695312 L48.0810547,14 L49.0302734,14 Z M50.9594727,14 L50.9594727,11.3061523 C50.9594727,10.5854492 51.3901367,10.1020508 52.0581055,10.1020508 C52.7172852,10.1020508 53.0424805,10.4931641 53.0424805,11.1875 L53.0424805,14 L53.9960938,14 L53.9960938,11.0073242 C53.9960938,9.94384766 53.4116211,9.2890625 52.3964844,9.2890625 C51.6977539,9.2890625 51.2231445,9.60546875 50.9814453,10.0756836 L50.9594727,10.0756836 L50.9594727,9.37695312 L50.0102539,9.37695312 L50.0102539,14 L50.9594727,14 Z M58.3554688,14.0922852 C58.5488281,14.0922852 58.7290039,14.0703125 58.8388672,14.0527344 L58.8388672,13.3188477 C58.7685547,13.3276367 58.6850586,13.3364258 58.5839844,13.3364258 C58.184082,13.3364258 57.9731445,13.1958008 57.9731445,12.7255859 L57.9731445,10.1328125 L58.8388672,10.1328125 L58.8388672,9.37695312 L57.9731445,9.37695312 L57.9731445,8.17285156 L57.0019531,8.17285156 L57.0019531,9.37695312 L56.3383789,9.37695312 L56.3383789,10.1328125 L57.0019531,10.1328125 L57.0019531,12.7827148 C57.0019531,13.7055664 57.4414062,14.0922852 58.3554688,14.0922852 Z M60.6054688,14 L60.6054688,11.3237305 C60.6054688,10.6030273 61.0405273,10.1020508 61.6953125,10.1020508 C62.3632812,10.1020508 62.75,10.559082 62.75,11.3237305 L62.75,14 L63.6992188,14 L63.6992188,11.1435547 C63.6992188,10.0273438 63.0488281,9.2890625 62.0600586,9.2890625 C61.3701172,9.2890625 60.8735352,9.60107422 60.6274414,10.137207 L60.6054688,10.137207 L60.6054688,7.65869141 L59.65625,7.65869141 L59.65625,14 L60.6054688,14 Z M66.5908203,14.0922852 C67.7114258,14.0922852 68.4233398,13.4243164 68.5727539,12.6904297 L68.581543,12.6420898 L67.6806641,12.6420898 L67.6674805,12.6772461 C67.5488281,13.0244141 67.175293,13.3144531 66.612793,13.3144531 C65.8569336,13.3144531 65.3779297,12.8046875 65.3603516,11.9301758 L68.6342773,11.9301758 L68.6342773,11.609375 C68.6342773,10.2207031 67.8388672,9.2890625 66.5424805,9.2890625 C65.2460938,9.2890625 64.4111328,10.2558594 64.4111328,11.7016602 L64.4111328,11.7060547 C64.4111328,13.1650391 65.2329102,14.0922852 66.5908203,14.0922852 Z M67.6938477,11.2578125 L65.3735352,11.2578125 C65.4570312,10.484375 65.9316406,10.0668945 66.546875,10.0668945 C67.1665039,10.0668945 67.6147461,10.4580078 67.6938477,11.2578125 Z"/><path fill="#FFF" fill-rule="nonzero" d="M42.6425781,30 C46.421875,30 48.6455078,27.6445312 48.6455078,23.6367188 L48.6455078,23.6191406 C48.6455078,19.6289062 46.4042969,17.3173828 42.6425781,17.3173828 L38.1689453,17.3173828 L38.1689453,30 L42.6425781,30 Z M42.4580078,28.2949219 L40.1376953,28.2949219 L40.1376953,19.0136719 L42.4580078,19.0136719 C45.1298828,19.0136719 46.6328125,20.6572266 46.6328125,23.6367188 L46.6328125,23.6542969 C46.6328125,26.6513672 45.1474609,28.2949219 42.4580078,28.2949219 Z M51.3261719,19.3300781 C51.9501953,19.3300781 52.4335938,18.8378906 52.4335938,18.2402344 C52.4335938,17.6337891 51.9501953,17.1416016 51.3261719,17.1416016 C50.7109375,17.1416016 50.21875,17.6337891 50.21875,18.2402344 C50.21875,18.8378906 50.7109375,19.3300781 51.3261719,19.3300781 Z M52.2753906,30 L52.2753906,20.7539062 L50.3769531,20.7539062 L50.3769531,30 L52.2753906,30 Z M57.6982422,30.1845703 C59.8779297,30.1845703 61.4599609,29.0244141 61.4599609,27.3369141 L61.4599609,27.328125 C61.4599609,26.0009766 60.7392578,25.2539062 58.8496094,24.8144531 L57.3466797,24.4716797 C56.3535156,24.234375 55.9755859,23.8476562 55.9755859,23.2763672 L55.9755859,23.2675781 C55.9755859,22.5292969 56.6171875,22.0458984 57.6367188,22.0458984 C58.7089844,22.0458984 59.3417969,22.6083984 59.4560547,23.4169922 L59.4648438,23.4785156 L61.2490234,23.4785156 L61.2402344,23.3730469 C61.1435547,21.7998047 59.8251953,20.578125 57.6367188,20.578125 C55.5097656,20.578125 54.0683594,21.7119141 54.0683594,23.3642578 L54.0683594,23.3730469 C54.0683594,24.7177734 54.9384766,25.5615234 56.6962891,25.9658203 L58.2080078,26.3085938 C59.2011719,26.5458984 59.5351562,26.8886719 59.5351562,27.4863281 L59.5351562,27.4951172 C59.5351562,28.2421875 58.8496094,28.7167969 57.7070312,28.7167969 C56.5380859,28.7167969 55.9052734,28.2158203 55.7294922,27.3632812 L55.7119141,27.2753906 L53.8310547,27.2753906 L53.8398438,27.3544922 C54.0332031,29.0419922 55.3867188,30.1845703 57.6982422,30.1845703 Z M66.9003906,30.1845703 C69.1240234,30.1845703 70.6708984,28.7607422 70.8730469,26.90625 L70.8818359,26.8447266 L69.0537109,26.8447266 L69.0449219,26.9150391 C68.8164062,27.9169922 68.0693359,28.59375 66.9003906,28.59375 C65.4326172,28.59375 64.4570312,27.4072266 64.4570312,25.3857422 L64.4570312,25.3769531 C64.4570312,23.3994141 65.4150391,22.1689453 66.8916016,22.1689453 C68.1308594,22.1689453 68.8339844,22.9335938 69.0361328,23.8388672 L69.0537109,23.9091797 L70.8642578,23.9091797 L70.8554688,23.8476562 C70.6972656,22.1074219 69.2558594,20.578125 66.8740234,20.578125 C64.2373047,20.578125 62.5146484,22.4326172 62.5146484,25.359375 L62.5146484,25.3681641 C62.5146484,28.3300781 64.2021484,30.1845703 66.9003906,30.1845703 Z M76.1992188,30.1845703 C78.8447266,30.1845703 80.5849609,28.3564453 80.5849609,25.3769531 L80.5849609,25.359375 C80.5849609,22.3974609 78.8271484,20.578125 76.1904297,20.578125 C73.5625,20.578125 71.8134766,22.40625 71.8134766,25.359375 L71.8134766,25.3769531 C71.8134766,28.3476562 73.5449219,30.1845703 76.1992188,30.1845703 Z M76.2080078,28.59375 C74.7226562,28.59375 73.7558594,27.4248047 73.7558594,25.3769531 L73.7558594,25.359375 C73.7558594,23.3378906 74.7314453,22.1689453 76.1904297,22.1689453 C77.6757812,22.1689453 78.6425781,23.3378906 78.6425781,25.359375 L78.6425781,25.3769531 C78.6425781,27.4160156 77.6933594,28.59375 76.2080078,28.59375 Z M83.9511719,30 L83.9511719,24.4892578 C83.9511719,23.109375 84.7070312,22.3095703 85.9287109,22.3095703 C86.2978516,22.3095703 86.6318359,22.3535156 86.78125,22.4150391 L86.78125,20.6484375 C86.6318359,20.6220703 86.3945312,20.578125 86.1220703,20.578125 C85.0673828,20.578125 84.2939453,21.2548828 83.9951172,22.3359375 L83.9511719,22.3359375 L83.9511719,20.7539062 L82.0527344,20.7539062 L82.0527344,30 L83.9511719,30 Z M91.4130859,30.1845703 C92.7402344,30.1845703 93.7597656,29.5166016 94.3134766,28.4355469 L94.3486328,28.4355469 L94.3486328,30 L96.2558594,30 L96.2558594,17.3173828 L94.3486328,17.3173828 L94.3486328,22.3271484 L94.3134766,22.3271484 C93.7597656,21.2373047 92.7050781,20.578125 91.3955078,20.578125 C89.0751953,20.578125 87.5458984,22.4238281 87.5458984,25.3681641 L87.5458984,25.3769531 C87.5458984,28.3212891 89.0576172,30.1845703 91.4130859,30.1845703 Z M91.9140625,28.5498047 C90.4111328,28.5498047 89.4882812,27.3457031 89.4882812,25.3769531 L89.4882812,25.3681641 C89.4882812,23.4169922 90.4199219,22.2041016 91.9140625,22.2041016 C93.3378906,22.2041016 94.3574219,23.4521484 94.3574219,25.3681641 L94.3574219,25.3769531 C94.3574219,27.3017578 93.3466797,28.5498047 91.9140625,28.5498047 Z"/><g id="Discord-Logo-White-(2)" fill="#FFF" fill-rule="nonzero" transform="translate(9.000000, 11.000000)"><path id="Shape" d="M18.6239291,1.40920724 C17.2217235,0.756946488 15.71807,0.276389514 14.1459067,0.00115457486 C14.1172757,-0.00415737339 14.0886757,0.00911747115 14.0739264,0.0356677885 C13.8805433,0.384356197 13.6663377,0.839248703 13.5163349,1.19679214 C11.8253715,0.940147448 10.1430842,0.940147448 8.48679413,1.19679214 C8.33676033,0.831301199 8.11477724,0.384356197 7.92052654,0.0356677885 C7.90577724,0.0100033194 7.87717724,-0.00327152513 7.84854626,0.00115457486 C6.27725052,0.275509948 4.77359703,0.756066923 3.37052383,1.40920724 C3.35837735,1.41451605 3.34796608,1.42337453 3.34105622,1.43487171 C0.488942208,5.75460709 -0.292371041,9.96816632 0.0909151187,14.1294856 C0.0926494003,14.1498413 0.103922386,14.1693174 0.119531541,14.1816941 C2.00127485,15.5826537 3.82406466,16.4331623 5.61300547,16.9969011 C5.64163645,17.0057596 5.67197166,16.9951419 5.69019138,16.9712366 C6.11336602,16.3853831 6.49058854,15.7676453 6.81401952,15.1180232 C6.83310684,15.079982 6.81488713,15.0348414 6.77587586,15.0197946 C6.17753785,14.7896939 5.60779983,14.5091439 5.05975196,14.1905526 C5.01640266,14.1648882 5.01293224,14.1020306 5.05281111,14.0719369 C5.16814069,13.9843259 5.28350125,13.8931652 5.39362519,13.8011249 C5.41354913,13.784319 5.44131251,13.7807693 5.46473786,13.7913869 C9.06517721,15.4578811 12.9630813,15.4578811 16.521039,13.7913869 C16.5444644,13.7798897 16.5722277,13.7834394 16.5930193,13.8002454 C16.7031742,13.8922856 16.8185038,13.9843259 16.934701,14.0719369 C16.9745798,14.1020306 16.971977,14.1648882 16.9286277,14.1905526 C16.3805799,14.5153322 15.8108418,14.7896939 15.2116362,15.018915 C15.172625,15.0339618 15.1552728,15.079982 15.1743602,15.1180232 C15.504732,15.7667343 15.8819545,16.3844721 16.2973207,16.970357 C16.3146728,16.9951419 16.3458756,17.0057596 16.3745066,16.9969011 C18.1721235,16.4331623 19.9949009,15.5826537 21.8766445,14.1816941 C21.893129,14.1693174 21.9035403,14.1507209 21.9052755,14.1303652 C22.363991,9.31942383 21.1369488,5.14041896 18.6525291,1.43575128 C18.6464559,1.42337453 18.6360756,1.41451605 18.6239291,1.40920724 Z M7.35168711,11.5956769 C6.26770686,11.5956769 5.37453787,10.5867837 5.37453787,9.34775841 C5.37453787,8.10873313 6.25038573,7.09983992 7.35168711,7.09983992 C8.46163357,7.09983992 9.34615749,8.11759161 9.32880538,9.34775841 C9.32880538,10.5867837 8.45295751,11.5956769 7.35168711,11.5956769 Z M14.6618531,11.5956769 C13.5779039,11.5956769 12.6847349,10.5867837 12.6847349,9.34775841 C12.6847349,8.10873313 13.5605518,7.09983992 14.6618531,7.09983992 C15.7718306,7.09983992 16.6563235,8.11759161 16.6390024,9.34775841 C16.6390024,10.5867837 15.7718306,11.5956769 14.6618531,11.5956769 Z"/></g><path id="New" fill="#FFF" fill-rule="nonzero" d="M96.5600586,10 L96.5600586,5.30224609 L96.5864258,5.30224609 L99.8515625,10 L100.756836,10 L100.756836,3.65869141 L99.78125,3.65869141 L99.78125,8.34765625 L99.7548828,8.34765625 L96.4941406,3.65869141 L95.5844727,3.65869141 L95.5844727,10 L96.5600586,10 Z M103.784668,10.0922852 C104.905273,10.0922852 105.617188,9.42431641 105.766602,8.69042969 L105.775391,8.64208984 L104.874512,8.64208984 L104.861328,8.67724609 C104.742676,9.02441406 104.369141,9.31445312 103.806641,9.31445312 C103.050781,9.31445312 102.571777,8.8046875 102.554199,7.93017578 L105.828125,7.93017578 L105.828125,7.609375 C105.828125,6.22070312 105.032715,5.2890625 103.736328,5.2890625 C102.439941,5.2890625 101.60498,6.25585938 101.60498,7.70166016 L101.60498,7.70605469 C101.60498,9.16503906 102.426758,10.0922852 103.784668,10.0922852 Z M104.887695,7.2578125 L102.567383,7.2578125 C102.650879,6.484375 103.125488,6.06689453 103.740723,6.06689453 C104.360352,6.06689453 104.808594,6.45800781 104.887695,7.2578125 Z M108.45166,10 L109.414062,6.53710938 L109.436035,6.53710938 L110.407227,10 L111.395996,10 L112.661621,5.37695312 L111.721191,5.37695312 L110.877441,9.015625 L110.855469,9.015625 L109.888672,5.37695312 L108.974609,5.37695312 L108.012207,9.015625 L107.994629,9.015625 L107.150879,5.37695312 L106.20166,5.37695312 L107.47168,10 L108.45166,10 Z"/></g></svg>